PathFileType	4	(X/Y/Z)	C:/Users/beibeiliu/ov580/test_trc/capture2\sequence.25_training_dense_right.trc
DataRate	CameraRate	NumFrames	NumMarkers	Units	OrigDataRate	OrigDataStartFrame	OrigNumFrames
120	120	25	19	mm	120	258	343
Frame#	Time	ThumbCMC			ThumbMCP			ThumbIP			ThumbTip			IndexMCP			IndexPIP			IndexTip			MiddleMCP			MiddlePIP			MiddleTip			RingMCP			RingPIP			RingTip			PinkyMCP			PinkyPIP			PinkyTip			BackHand1			BackHand2			BackHand3	
		X0	Y0	Z0	X1	Y1	Z1	X2	Y2	Z2	X3	Y3	Z3	X4	Y4	Z4	X5	Y5	Z5	X6	Y6	Z6	X7	Y7	Z7	X8	Y8	Z8	X9	Y9	Z9	X10	Y10	Z10	X11	Y11	Z11	X12	Y12	Z12	X13	Y13	Z13	X14	Y14	Z14	X15	Y15	Z15	X16	Y16	Z16	X17	Y17	Z17	X18	Y18	Z18	
257	2.14167	184.47	56.0435	34.2373	191.281	60.4365	6.53503	205.302	65.485	-16.7175	217.94	56.9059	-36.9899	217.412	37.2232	-26.0762	189.565	41.2119	-40.4488	168.622	44.3682	-18.1113	208.649	19.1574	-28.5782	179.656	28.3872	-37.9928	160.606	34.1424	-5.53792	200.972	2.39395	-28.9691	172.304	14.1754	-34.6143	164.672	23.1075	-4.55981	201.448	-26.0652	-17.2866	205.194	-29.1497	-36.5826	215.531	-38.7695	-58.985	201.13	-9.00356	27.2595	184.673	-3.94727	54.0236	201.741	22.6824	44.2208	
258	2.15	184.889	55.8349	34.0606	196.661	67.7288	5.73	210.043	68.6386	-15.7318	223.812	63.2134	-36.9453	224.931	38.4638	-22.2767	196.333	43.5782	-39.659	175.15	41.8859	-19.0611	215.476	18.8756	-25.9134	184.789	31.9418	-36.5095	166.767	33.5982	-4.87032	208.97	1.53138	-29.7526	181.4	15.3772	-34.8388	172.518	20.8211	-1.3935	212.276	-20.6158	-12.6665	218.362	-28.5716	-36.2129	231.146	-32.5997	-55.9149	209.937	-4.5029	32.11	189.538	-4.40319	53.1746	208.717	27.784	45.4157	
259	2.15833	189.384	58.2654	34.5874	199.266	66.1565	7.24179	214.474	70.3835	-13.471	227.198	68.5614	-32.6586	230.777	46.2049	-21.6511	204.979	48.5326	-37.7696	179.994	46.6609	-14.999	221.789	22.9931	-26.3496	194.344	34.1965	-35.4081	171.491	31.8421	-8.45918	220.699	8.00668	-23.6149	193.252	14.4891	-34.7035	179.354	23.922	-4.90285	224.536	-20.754	-13.2608	231.373	-23.1177	-35.3579	242.849	-29.0662	-50.0746	217.707	-3.87258	32.1473	192.087	-2.20729	55.6486	209.945	33.0876	47.7939	
260	2.16667	191.77	60.7622	35.4315	200.866	69.3886	10.6178	219.68	76.2312	-11.5311	235.224	74.9686	-31.2091	236.511	45.609	-20.0505	213.348	47.3884	-36.9623	186.988	46.6447	-13.6998	231.124	26.4983	-19.7109	202.248	33.7895	-35.9136	177.189	35.8246	-8.48265	226.687	11.3333	-22.9943	198.816	20.2381	-32.982	184.367	24.7207	-2.10415	233.034	-17.2595	-12.5177	238.606	-19.343	-30.7156	251.51	-25.3901	-48.1257	219.118	-0.931042	34.7164	197.636	1.71506	56.0313	217.411	31.3294	46.9429	
261	2.175	195.69	59.3868	36.6887	209.15	71.3099	9.61321	227.888	74.9493	-11.571	242.034	71.2453	-28.9636	242.255	49.6119	-15.9475	220.029	55.7027	-35.5985	192.606	47.6989	-14.8809	236.015	32.0296	-21.0628	206.535	34.6993	-33.8762	180.97	38.7893	-5.77872	231.611	13.2623	-23.7101	204.614	19.5619	-33.126	189.379	27.1785	-0.283178	235.49	-12.4166	-7.89323	245.444	-16.9556	-29.4633	262.266	-18.6223	-48.3092	225.619	0.855783	34.4956	201.895	5.46557	55.4271	218.252	33.8367	48.3603	
262	2.18333	201	62.7611	35.6571	207.716	74.7432	11.9025	227.635	82.437	-8.04032	243.76	77.8557	-26.7039	244.364	54.0585	-16.8154	221.607	54.0455	-33.4632	194.657	48.2619	-13.7136	237.663	31.6273	-19.8847	207.353	38.4285	-33.0144	184.24	38.6615	-7.487	235.557	15.3548	-20.4488	206.924	25.7325	-30.4614	191.156	26.3044	0.597367	240.7	-10.17	-9.46858	250.175	-12.3022	-27.4535	263.757	-17.5413	-43.9896	224.914	0.713179	35.8519	205.254	3.39993	56.5396	223.663	34.0841	48.5021	
263	2.19167	201.424	64.8051	35.1286	210.186	77.1576	12.018	231.064	82.7256	-9.12371	245.228	82.7532	-25.7157	245.347	59.2678	-15.2021	220.488	62.72	-33.117	195.708	54.1176	-15.5887	239.728	35.8809	-17.3881	212.183	42.0053	-32.8324	184.499	44.7796	-6.88148	237.547	20.6126	-21.0824	207.651	25.7731	-31.949	192.304	27.8592	-1.93347	242.366	-7.42734	-7.58495	252.606	-8.32348	-28.1466	268.784	-12.4695	-42.5888	227.935	6.8746	36.2026	206.032	7.29743	57.1363	219.89	38.7213	49.33	
264	2.2	194.84	69.3202	38.4656	205.226	78.7287	13.6347	227.586	86.4657	-8.40394	239.883	83.8178	-24.3973	242.574	62.3199	-16.086	219.778	66.041	-32.5905	194.96	54.1569	-14.4693	237.656	40.391	-19.1045	208.474	44.3425	-33.2884	182.738	43.7597	-4.28037	236.727	21.4192	-20.8224	207.975	32.3541	-31.0677	193.044	30.4164	1.63663	242.947	-1.25556	-7.48758	253.822	-3.64378	-27.4507	270.663	-6.91753	-46.2063	227.071	7.58571	36.009	207.571	11.1237	54.8057	219.328	41.7842	49.5348	
265	2.20833	195.683	66.8938	36.8591	204.642	81.1608	12.5359	223.56	90.0828	-8.59289	238.594	89.7406	-27.2357	239.802	63.0559	-15.8414	215.877	66.0559	-34.5869	189.728	57.3987	-13.0497	233.356	44.7243	-22.6317	205.362	47.8626	-32.7654	181.238	43.5528	-5.15523	232.117	26.9371	-22.6761	201.15	32.1557	-31.5875	189.519	34.588	-3.40841	241.365	-2.83279	-10.6328	248.429	-2.10761	-25.99	263.961	-9.40812	-47.2041	228.246	11.1852	31.2764	204.307	12.0518	57.9861	219.087	44.628	49.5955	
266	2.21667	192.839	72.1663	36.3039	198.11	81.2735	11.9462	214.884	88.3848	-8.00291	230.55	93.4341	-30.0986	235.452	63.4502	-15.1273	207.662	68.6407	-35.3971	185.127	58.7619	-15.2698	226.995	44.9916	-24.3767	197.284	50.7204	-33.8948	176.542	51.0314	-5.10479	227.276	30.2001	-24.309	198.526	31.1495	-34.3608	184.688	36.2391	-2.1671	233.109	2.06448	-9.10306	242.041	-5.91657	-30.1207	259.946	-7.25197	-47.829	224.105	12.8557	32.2923	203.986	13.0091	52.3929	214.345	43.661	47.4017	
267	2.225	186.451	69.2582	36.7954	194.693	82.2242	9.48842	208.677	90.2437	-12.3032	220.979	91.3364	-32.7048	227.921	68.9349	-19.3212	203.818	66.4561	-38.6849	177.518	60.0941	-13.8626	220.711	48.2105	-26.3755	190.067	50.2498	-34.7841	170.789	50.7297	-5.57446	219.794	28.6717	-28.5656	190.698	37.8569	-34.8739	179.03	40.7012	-1.98726	225.902	1.28135	-13.0919	233.263	-6.4368	-32.0177	249.513	-12.3475	-53.0784	221.111	13.8328	27.3782	202.278	14.0057	52.788	214.788	46.5835	42.8639	
268	2.23333	183.324	73.6927	35.9592	189.387	86.3365	5.26503	199.635	89.9595	-15.1994	214.394	92.2669	-39.2658	220.216	63.4259	-28.8716	192.977	69.6268	-41.7357	170.931	63.9439	-18.8765	211.761	44.5496	-30.6242	183.392	52.2248	-37.7615	164.836	48.5578	-2.75264	210.639	28.7613	-32.8936	181.384	37.827	-36.9283	171.984	41.8662	-5.99794	216.729	-2.70102	-16.6703	225.264	-8.74312	-38.6023	236.912	-20.1653	-55.4994	214.954	15.7967	23.5508	195.022	13.7067	51.0203	208.306	48.4849	43.347	
269	2.24167	181.909	70.757	30.5168	184.859	82.945	3.23994	194.17	89.1696	-21.3281	203.903	89.1869	-43.3087	213.247	64.68	-30.6796	184.07	64.998	-45.3756	164.414	60.6351	-22.2923	205.435	44.8215	-32.2558	171.004	48.1573	-39.0658	158.335	49.052	-3.55994	201.446	23.5208	-33.053	172.893	34.6754	-39.7649	163.633	41.2338	-8.26395	206.445	-6.70506	-20.0178	211.464	-11.9689	-40.7227	221.338	-23.9758	-58.9544	210.171	14.8329	21.4634	195.805	16.1434	47.8773	207.403	48.4568	38.2058	
270	2.25	181.337	75.6405	28.9344	178.832	85.1587	1.45295	186.026	85.3044	-22.3957	194.319	82.3984	-46.5479	206.052	57.1604	-35.5169	176.465	60.7146	-47.7359	157.858	60.2049	-23.1564	196.975	41.5737	-36.7917	165.3	46.3901	-42.049	153.907	54.8707	-4.9805	189.801	21.888	-36.1492	161.116	35.8945	-36.0617	159.036	41.7812	-2.97508	196.454	-7.95769	-19.6709	197.641	-16.0989	-39.7352	207.858	-24.4429	-60.0182	201.434	14.4024	21.7549	192.018	18.6407	50.448	204.889	45.6058	37.6605	
271	2.25833	179.033	74.5077	26.8659	175.947	83.6061	-2.8677	181.233	85.8112	-28.417	188.151	78.3155	-51.8713	199.678	54.3732	-37.8711	171.766	59.6659	-51.1767	153.215	59.7084	-20.577	189.413	35.9879	-38.5975	158.04	43.1409	-43.8928	148.695	50.972	-9.12412	182.085	17.9318	-35.3673	151.172	29.5786	-35.3154	151.914	40.73	-4.37372	187.304	-8.95515	-20.795	186.547	-20.6593	-42.8037	194.714	-30.8525	-58.6084	200.478	12.389	16.9868	185.722	14.4309	49.5192	204.041	45.292	33.0477	
272	2.26667	178.912	71.5188	21.6927	173.46	77.174	-5.64781	177.979	77.0016	-32.5506	179.477	74.1271	-53.7593	194.562	50.8691	-40.1817	164.984	53.7049	-53.397	147.499	59.6919	-26.5447	179.871	28.2673	-42.1829	149.803	41.4432	-43.098	146.619	51.7524	-5.40174	174.871	15.5085	-35.3577	142.462	28.9347	-34.1158	146.4	40.3101	-5.26993	177.431	-15.2517	-22.9105	174.589	-26.1171	-41.1446	177.967	-40.013	-59.2183	192.698	10.6565	15.9959	187.292	14.5697	46.352	199.455	38.6028	29.6215	
273	2.275	177.313	70.7172	22.0798	171.038	72.8801	-8.39843	171.171	77.5447	-33.5774	173.905	71.5619	-58.5886	188.718	43.5597	-42.6201	160.358	51.4536	-55.5695	143.812	56.394	-26.4161	174.594	23.5881	-40.7446	143.051	39.769	-41.8032	140.912	50.4896	-9.22267	162.97	10.817	-36.3667	137.136	26.5055	-32.6799	144.405	41.706	-2.63979	167.79	-18.1202	-17.8256	166.286	-25.6774	-37.2421	165.955	-41.5981	-53.5154	189.635	9.35888	18.9605	183.123	14.8013	43.5629	198.271	36.946	23.4618	
274	2.28333	175.603	68.3336	22.2764	166.947	73.7068	-6.08216	168.073	73.9441	-39.0965	165.646	65.8237	-58.9746	180.53	42.1246	-47.6773	152.289	48.0932	-54.6361	139.077	60.2086	-26.6555	165.656	24.8347	-43.9461	136.918	38.2955	-40.35	138.53	52.9892	-7.11687	153.669	8.78389	-37.5148	133.127	26.4994	-33.9223	138.363	39.588	-0.316158	159.055	-19.7885	-15.8066	154.14	-30.3098	-36.1636	150.015	-44.9565	-52.8137	186.453	6.0986	16.0412	180.94	11.0938	48.6712	194.399	34.1282	22.3742	
275	2.29167	174.509	66.4309	18.6895	165.08	74.7776	-11.1844	162.958	69.0938	-36.5013	160.301	65.8542	-59.9468	174.977	36.9072	-44.9764	145.218	49.514	-54.0883	136.348	60.8338	-21.5761	158.351	19.7873	-41.5734	131.284	38.8262	-38.8424	134.025	50.2717	-7.15813	149.742	6.13484	-32.6006	123.826	25.5118	-28.2266	133.363	41.203	-1.98673	151.547	-21.4237	-19.2625	145.073	-27.8083	-37.7977	139.495	-43.7901	-52.458	178.092	0.993775	12.3242	180.196	12.8038	44.6978	190.863	32.3896	22.2172	
276	2.3	172.246	66.4716	20.502	162.177	75.8425	-9.62706	158.996	75.2771	-37.2288	155.114	68.1804	-60.5644	168.823	38.0035	-46.333	138.235	47.569	-52.3634	132.952	61.7078	-19.2867	154.602	23.5011	-41.187	124.465	40.4939	-36.4315	130.017	50.3195	-4.40802	139.734	11.4333	-35.6538	118.665	31.9283	-26.0365	128.134	42.2001	0.336746	146.347	-17.5161	-21.166	135.51	-25.9261	-38.8362	127.562	-42.2753	-53.5522	174.216	3.07422	10.0258	174.076	9.86889	44.7088	188.043	30.7351	18.3918	
277	2.30833	170.61	63.8956	15.4435	160.409	72.6095	-9.67911	155.829	74.206	-38.2404	149.64	69.3624	-55.4301	158.966	40.1562	-48.5201	132.806	54.4051	-51.0512	130.208	60.6698	-14.5606	145.48	24.4209	-41.2672	119.558	42.9339	-36.2353	131.406	51.8256	1.37651	133.576	15.3276	-34.6494	111.86	31.9706	-24.752	129.212	47.0903	3.27236	136.668	-15.0177	-18.7981	122.806	-24.9321	-37.0525	115.18	-34.5723	-56.126	169.23	2.37078	9.85015	174.104	10.7346	42.5787	188.306	33.8433	15.8259	
278	2.31667	170.061	69.1264	16.2576	158.413	74.8277	-9.9066	153.259	77.6236	-36.3223	146.842	72.4005	-58.5791	154.873	46.3166	-48.6505	126.3	59.7767	-46.7143	125.956	63.1406	-15.277	137.099	27.8662	-40.0714	115.313	48.8387	-34.7913	127.399	58.809	-0.343602	127.825	20.0713	-33.9484	107.993	38.8464	-22.2041	124.377	47.7145	5.74926	130.58	-10.7982	-18.48	116.055	-18.0854	-33.4843	104.515	-29.8781	-56.2231	164.544	4.80228	8.65141	170.288	9.18332	42.457	184.362	35.5049	14.6994	
279	2.325	168.919	70.4254	19.5503	157.211	80.8678	-6.36669	152.828	84.8153	-32.9958	145.847	79.1344	-53.1301	148.563	48.0576	-46.5777	122.361	63.8792	-42.842	125.369	71.5907	-12.8903	133.93	33.4914	-39.0317	110.428	55.3295	-29.0692	124.884	62.4337	1.50746	124.042	24.2566	-32.5212	104.213	44.8081	-19.9561	119.868	52.0415	7.75025	121.923	-6.54801	-17.8232	107.965	-9.75649	-34.4451	98.6843	-18.8625	-56.3359	160.458	5.50584	12.9748	168.988	13.5232	38.9467	181.891	34.4863	15.7707	
280	2.33333	167.825	74.2601	22.1451	156.105	83.4903	-2.46173	150.232	84.8722	-33.2225	143.958	85.1411	-54.7155	145.832	52.5201	-44.4349	120.134	72.467	-40.3577	128.629	74.7886	-8.43325	127.345	41.0648	-40.4898	108.014	59.1569	-28.5896	126.555	65.1362	5.37894	119.347	31.9834	-32.3909	102.817	51.3144	-20.9427	120.55	54.5228	10.4976	120.045	1.29045	-18.8076	102.539	-2.37544	-36.4181	91.5067	-7.72095	-57.8759	157.111	10.0857	7.18135	164.004	14.1209	38.4014	177.469	38.1447	13.1752	
281	2.34167	167.826	74.7843	21.5547	155.861	86.6412	-4.2952	149.956	88.7063	-30.1159	143.813	91.9448	-52.236	144.821	59.0891	-43.249	120.675	79.8249	-39.5131	125.86	77.1235	-7.39926	127.311	45.1815	-38.5365	108.593	71.7581	-25.5769	125.193	68.8748	6.64607	116.799	32.9362	-28.9896	101.092	58.7454	-16.8836	123.491	59.4179	9.24728	115.544	8.24037	-20.2512	100.084	7.42004	-37.2905	84.0743	-1.03172	-58.5024	152.788	15.0148	7.83856	161.298	18.0578	37.369	176.525	40.5503	14.1891	
